HIERARCHY
ROOT Root
{
	OFFSET 0.00000 0.00000 0.00000
	CHANNELS 6 Xposition Yposition Zposition Zrotation Xrotation Yrotation
	JOINT Hip
	{
		OFFSET 0 0 0	
		CHANNELS 3 Zrotation Xrotation Yrotation
		JOINT Tummy
		{
			OFFSET 0 0.04 0	
			CHANNELS 3 Zrotation Xrotation Yrotation
			JOINT ChestBottom
			{
				OFFSET 0 0.194 0	
				CHANNELS 3 Zrotation Xrotation Yrotation
				JOINT ChestTop
				{
					OFFSET 0 0.166 0	
					CHANNELS 3 Zrotation Xrotation Yrotation
					JOINT LeftCollar
					{
						OFFSET 0 0.1 0	
						CHANNELS 3 Zrotation Xrotation Yrotation
						JOINT LeftUpperArm
						{
							OFFSET 0.156 -0.02 0.03	
							CHANNELS 3 Zrotation Xrotation Yrotation
							JOINT LeftForeArm
							{
								OFFSET 0.035 -0.27 -0.01	
								CHANNELS 3 Zrotation Xrotation Yrotation
								JOINT LeftHand
								{
									OFFSET 0.01 -0.27 0.01	
									CHANNELS 3 Zrotation Xrotation Yrotation
									End Site
									{
										OFFSET 0 -0.15 0
									}
								}
							}
						}
					}
					JOINT RightCollar
					{
						OFFSET 0 0.1 0	
						CHANNELS 3 Zrotation Xrotation Yrotation
						JOINT RightUpperArm
						{
							OFFSET -0.156 -0.02 0.03	
							CHANNELS 3 Zrotation Xrotation Yrotation
							JOINT RightForeArm
							{
								OFFSET -0.035 -0.27 -0.01	
								CHANNELS 3 Zrotation Xrotation Yrotation
								JOINT RightHand
								{
									OFFSET -0.01 -0.27 0.01	
									CHANNELS 3 Zrotation Xrotation Yrotation
									End Site
									{
										OFFSET 0 -0.15 0
									}
								}
							}
						}
					}
					JOINT Neck
					{
						OFFSET 0 0.1 0	
						CHANNELS 3 Zrotation Xrotation Yrotation
						JOINT Head
						{
							OFFSET 0 0.127 0.03	
							CHANNELS 3 Zrotation Xrotation Yrotation
							End Site
							{
								OFFSET 0 0.127 0.03
							}
						}
					}
				}
			}
		}
	}
	JOINT LeftHip
	{
		OFFSET 0 0 0	
		CHANNELS 3 Zrotation Xrotation Yrotation
		JOINT LeftThigh
		{
			OFFSET 0.088 -0.06 0	
			CHANNELS 3 Zrotation Xrotation Yrotation
			JOINT LeftLowerLeg
			{
				OFFSET 0 -0.39 0.02	
				CHANNELS 3 Zrotation Xrotation Yrotation
				JOINT LeftFootTop
				{
					OFFSET 0 -0.43 -0.02	
					CHANNELS 3 Zrotation Xrotation Yrotation
					JOINT LeftFootFront
					{
						OFFSET 0 -0.07 0.085	
						CHANNELS 3 Zrotation Xrotation Yrotation
						End Site
						{
							OFFSET 0 -0.005 0.09
						}
					}
				}
				JOINT LeftHeel
				{
					OFFSET 0 -0.43 -0.02	
					CHANNELS 3 Zrotation Xrotation Yrotation
					End Site
					{
						OFFSET 0 -0.075 -0.05
					}
				}
			}
		}
	}
	JOINT RightHip
	{
		OFFSET 0 0 0	
		CHANNELS 3 Zrotation Xrotation Yrotation
		JOINT RightThigh
		{
			OFFSET -0.088 -0.06 0	
			CHANNELS 3 Zrotation Xrotation Yrotation
			JOINT RightLowerLeg
			{
				OFFSET 0 -0.39 0.02	
				CHANNELS 3 Zrotation Xrotation Yrotation
				JOINT RightFootTop
				{
					OFFSET 0 -0.43 -0.02	
					CHANNELS 3 Zrotation Xrotation Yrotation
					JOINT RightFootFront
					{
						OFFSET 0 -0.07 0.085	
						CHANNELS 3 Zrotation Xrotation Yrotation
						End Site
						{
							OFFSET 0 -0.005 0.09
						}
					}
				}
				JOINT RightHeel
				{
					OFFSET 0 -0.43 -0.02	
					CHANNELS 3 Zrotation Xrotation Yrotation
					End Site
					{
						OFFSET 0 -0.075 -0.05
					}
				}
			}
		}
	}
}
MOTION
Frames: 30
Frame Time: 0.05
0 0.955 0 -0 0 -0 -0 0 -0 -0 0 -0 -0.17419 24.108 -13.373 -0 0 -0 -0 0 -0 -1.008 -28.911 -4.148 62.363 -17.011 74.277 -0 0 -0 -0 0 -0 56.88 -57.402 53.947 158.77 -61.752 104.85 -0 0 -0 -5.7369 -23.194 -21.554 -5.7369 -23.194 -21.554 -0 0 -0 -0 0 -0 -0 0 -0 -0 0 -0 -0 0 -0 -0 0 -0 -0 0 -0 -0 0 -0 -0 0 -0 -0 0 -0 -0 0 -0 -0 0 -0 
0 0.955 0 -0 0 -0 -0 0 -0 -0 0 -0 -0.13333 24.177 -13.388 -0 0 -0 -0 0 -0 -1.046 -28.962 -4.2043 62.356 -16.953 74.252 -0 0 -0 -0 0 -0 56.944 -57.425 54.027 158.86 -61.733 104.96 -0 0 -0 -5.762 -23.213 -21.599 -5.762 -23.213 -21.599 -0 0 -0 -0 0 -0 -0 0 -0 -0 0 -0 -0 0 -0 -0 0 -0 -0 0 -0 -0 0 -0 -0 0 -0 -0 0 -0 -0 0 -0 -0 0 -0 
0 0.955 0 -0 0 -0 -0 0 -0 -0 0 -0 -0.095905 24.171 -13.398 -0 0 -0 -0 0 -0 -1.1053 -28.982 -4.266 62.325 -16.884 74.208 -0 0 -0 -0 0 -0 56.906 -57.408 53.999 158.83 -61.753 104.97 -0 0 -0 -5.7959 -23.238 -21.656 -5.7959 -23.238 -21.656 -0 0 -0 -0 0 -0 -0 0 -0 -0 0 -0 -0 0 -0 -0 0 -0 -0 0 -0 -0 0 -0 -0 0 -0 -0 0 -0 -0 0 -0 -0 0 -0 
0 0.955 0 -0 0 -0 -0 0 -0 -0 0 -0 -0.04591 24.226 -13.421 -0 0 -0 -0 0 -0 -1.1627 -29.059 -4.3092 62.309 -16.842 74.178 -0 0 -0 -0 0 -0 57.013 -57.412 54.107 158.75 -61.797 104.9 -0 0 -0 -5.8314 -23.316 -21.731 -5.8314 -23.316 -21.731 -0 0 -0 -0 0 -0 -0 0 -0 -0 0 -0 -0 0 -0 -0 0 -0 -0 0 -0 -0 0 -0 -0 0 -0 -0 0 -0 -0 0 -0 -0 0 -0 
0 0.955 0 -0 0 -0 -0 0 -0 -0 0 -0 0.063598 24.33 -13.495 -0 0 -0 -0 0 -0 -1.2427 -29.15 -4.3343 62.407 -16.825 74.183 -0 0 -0 -0 0 -0 57.258 -57.447 54.412 158.71 -61.905 104.94 -0 0 -0 -5.8903 -23.43 -21.805 -5.8903 -23.43 -21.805 -0 0 -0 -0 0 -0 -0 0 -0 -0 0 -0 -0 0 -0 -0 0 -0 -0 0 -0 -0 0 -0 -0 0 -0 -0 0 -0 -0 0 -0 -0 0 -0 
0 0.955 0 -0 0 -0 -0 0 -0 -0 0 -0 0.03598 24.407 -13.519 -0 0 -0 -0 0 -0 -1.1941 -29.179 -4.3661 62.482 -16.778 74.186 -0 0 -0 -0 0 -0 57.37 -57.431 54.512 158.79 -61.92 105.05 -0 0 -0 -5.882 -23.525 -21.9 -5.882 -23.525 -21.9 -0 0 -0 -0 0 -0 -0 0 -0 -0 0 -0 -0 0 -0 -0 0 -0 -0 0 -0 -0 0 -0 -0 0 -0 -0 0 -0 -0 0 -0 -0 0 -0 
0 0.955 0 -0 0 -0 -0 0 -0 -0 0 -0 0.035739 24.452 -13.576 -0 0 -0 -0 0 -0 -1.0843 -29.202 -4.3044 62.47 -16.784 74.244 -0 0 -0 -0 0 -0 57.47 -57.401 54.619 158.62 -61.897 104.85 -0 0 -0 -5.9148 -23.595 -22.01 -5.9148 -23.595 -22.01 -0 0 -0 -0 0 -0 -0 0 -0 -0 0 -0 -0 0 -0 -0 0 -0 -0 0 -0 -0 0 -0 -0 0 -0 -0 0 -0 -0 0 -0 -0 0 -0 
0 0.955 0 -0 0 -0 -0 0 -0 -0 0 -0 0.12235 24.443 -13.645 -0 0 -0 -0 0 -0 -1.1433 -29.152 -4.3016 62.521 -16.831 74.343 -0 0 -0 -0 0 -0 57.575 -57.381 54.765 158.4 -61.948 104.57 -0 0 -0 -6.0067 -23.678 -22.169 -6.0067 -23.678 -22.169 -0 0 -0 -0 0 -0 -0 0 -0 -0 0 -0 -0 0 -0 -0 0 -0 -0 0 -0 -0 0 -0 -0 0 -0 -0 0 -0 -0 0 -0 -0 0 -0 
0 0.955 0 -0 0 -0 -0 0 -0 -0 0 -0 0.13631 24.469 -13.685 -0 0 -0 -0 0 -0 -1.052 -29.161 -4.2995 62.442 -16.751 74.335 -0 0 -0 -0 0 -0 57.69 -57.392 54.921 158.4 -62.089 104.49 -0 0 -0 -6.084 -23.703 -22.33 -6.084 -23.703 -22.33 -0 0 -0 -0 0 -0 -0 0 -0 -0 0 -0 -0 0 -0 -0 0 -0 -0 0 -0 -0 0 -0 -0 0 -0 -0 0 -0 -0 0 -0 -0 0 -0 
0 0.955 0 -0 0 -0 -0 0 -0 -0 0 -0 0.18031 24.54 -13.714 -0 0 -0 -0 0 -0 -0.99511 -29.208 -4.3112 62.352 -16.717 74.378 -0 0 -0 -0 0 -0 57.774 -57.446 55.002 158.49 -62.136 104.13 -0 0 -0 -6.1259 -23.766 -22.486 -6.1259 -23.766 -22.486 -0 0 -0 -0 0 -0 -0 0 -0 -0 0 -0 -0 0 -0 -0 0 -0 -0 0 -0 -0 0 -0 -0 0 -0 -0 0 -0 -0 0 -0 -0 0 -0 
0 0.955 0 -0 0 -0 -0 0 -0 -0 0 -0 0.25958 24.508 -13.781 -0 0 -0 -0 0 -0 -1.0819 -29.185 -4.313 62.409 -16.713 74.404 -0 0 -0 -0 0 -0 57.582 -57.402 54.796 158.3 -62.005 102.67 -0 0 -0 -6.1938 -23.788 -22.601 -6.1938 -23.788 -22.601 -0 0 -0 -0 0 -0 -0 0 -0 -0 0 -0 -0 0 -0 -0 0 -0 -0 0 -0 -0 0 -0 -0 0 -0 -0 0 -0 -0 0 -0 -0 0 -0 
0 0.955 0 -0 0 -0 -0 0 -0 -0 0 -0 0.27253 24.539 -13.852 -0 0 -0 -0 0 -0 -1.0486 -29.18 -4.2594 62.393 -16.674 74.383 -0 0 -0 -0 0 -0 57.77 -57.342 54.946 157.51 -61.808 100.2 -0 0 -0 -6.334 -23.868 -22.771 -6.334 -23.868 -22.771 -0 0 -0 -0 0 -0 -0 0 -0 -0 0 -0 -0 0 -0 -0 0 -0 -0 0 -0 -0 0 -0 -0 0 -0 -0 0 -0 -0 0 -0 -0 0 -0 
0 0.955 0 -0 0 -0 -0 0 -0 -0 0 -0 0.28718 24.583 -13.856 -0 0 -0 -0 0 -0 -1.011 -29.248 -4.2937 62.31 -16.585 74.303 -0 0 -0 -0 0 -0 58.05 -57.346 55.209 156.8 -61.458 98.365 -0 0 -0 -6.7714 -24.129 -23.239 -6.7714 -24.129 -23.239 -0 0 -0 -0 0 -0 -0 0 -0 -0 0 -0 -0 0 -0 -0 0 -0 -0 0 -0 -0 0 -0 -0 0 -0 -0 0 -0 -0 0 -0 -0 0 -0 
0 0.955 0 -0 0 -0 -0 0 -0 -0 0 -0 0.40275 24.725 -13.913 -0 0 -0 -0 0 -0 -0.98238 -29.409 -4.2989 62.269 -16.544 74.25 -0 0 -0 -0 0 -0 58.365 -57.459 55.621 156.47 -60.863 97.394 -0 0 -0 -7.6328 -24.601 -24.036 -7.6328 -24.601 -24.036 -0 0 -0 -0 0 -0 -0 0 -0 -0 0 -0 -0 0 -0 -0 0 -0 -0 0 -0 -0 0 -0 -0 0 -0 -0 0 -0 -0 0 -0 -0 0 -0 
0 0.955 0 -0 0 -0 -0 0 -0 -0 0 -0 0.55913 24.805 -13.998 -0 0 -0 -0 0 -0 -1.0331 -29.478 -4.4051 62.244 -16.439 74.275 -0 0 -0 -0 0 -0 58.616 -57.498 55.887 156.53 -60.24 97.627 -0 0 -0 -8.6651 -25.133 -24.997 -8.6651 -25.133 -24.997 -0 0 -0 -0 0 -0 -0 0 -0 -0 0 -0 -0 0 -0 -0 0 -0 -0 0 -0 -0 0 -0 -0 0 -0 -0 0 -0 -0 0 -0 -0 0 -0 
0 0.955 0 -0 0 -0 -0 0 -0 -0 0 -0 0.72367 24.762 -14.119 -0 0 -0 -0 0 -0 -1.0752 -29.406 -4.5183 62.156 -16.268 74.369 -0 0 -0 -0 0 -0 58.667 -57.458 55.971 156.98 -59.867 98.312 -0 0 -0 -9.6119 -25.719 -25.799 -9.6119 -25.719 -25.799 -0 0 -0 -0 0 -0 -0 0 -0 -0 0 -0 -0 0 -0 -0 0 -0 -0 0 -0 -0 0 -0 -0 0 -0 -0 0 -0 -0 0 -0 -0 0 -0 
0 0.955 0 -0 0 -0 -0 0 -0 -0 0 -0 0.93203 24.786 -14.29 -0 0 -0 -0 0 -0 -1.095 -29.388 -4.4151 62.035 -16.266 74.401 -0 0 -0 -0 0 -0 58.793 -57.447 56.25 157.56 -59.917 98.657 -0 0 -0 -10.213 -26.24 -26.167 -10.213 -26.24 -26.167 -0 0 -0 -0 0 -0 -0 0 -0 -0 0 -0 -0 0 -0 -0 0 -0 -0 0 -0 -0 0 -0 -0 0 -0 -0 0 -0 -0 0 -0 -0 0 -0 
0 0.955 0 -0 0 -0 -0 0 -0 -0 0 -0 1.1789 24.68 -14.416 -0 0 -0 -0 0 -0 -1.2696 -29.308 -4.3713 61.967 -16.267 74.352 -0 0 -0 -0 0 -0 58.673 -57.397 56.227 157.92 -60.251 99.121 -0 0 -0 -10.481 -26.414 -26.217 -10.481 -26.414 -26.217 -0 0 -0 -0 0 -0 -0 0 -0 -0 0 -0 -0 0 -0 -0 0 -0 -0 0 -0 -0 0 -0 -0 0 -0 -0 0 -0 -0 0 -0 -0 0 -0 
0 0.955 0 -0 0 -0 -0 0 -0 -0 0 -0 1.1567 24.648 -14.333 -0 0 -0 -0 0 -0 -1.291 -29.276 -4.4039 61.917 -16.312 74.319 -0 0 -0 -0 0 -0 58.754 -57.403 56.091 158.06 -60.59 99.569 -0 0 -0 -10.449 -26.338 -26.231 -10.449 -26.338 -26.231 -0 0 -0 -0 0 -0 -0 0 -0 -0 0 -0 -0 0 -0 -0 0 -0 -0 0 -0 -0 0 -0 -0 0 -0 -0 0 -0 -0 0 -0 -0 0 -0 
0 0.955 0 -0 0 -0 -0 0 -0 -0 0 -0 1.0429 24.653 -14.278 -0 0 -0 -0 0 -0 -1.2351 -29.325 -4.2485 61.881 -16.446 74.215 -0 0 -0 -0 0 -0 58.879 -57.392 56.002 158.02 -60.914 99.699 -0 0 -0 -10.225 -26.139 -26.198 -10.225 -26.139 -26.198 -0 0 -0 -0 0 -0 -0 0 -0 -0 0 -0 -0 0 -0 -0 0 -0 -0 0 -0 -0 0 -0 -0 0 -0 -0 0 -0 -0 0 -0 -0 0 -0 
0 0.955 0 -0 0 -0 -0 0 -0 -0 0 -0 1.0323 24.642 -14.25 -0 0 -0 -0 0 -0 -1.3052 -29.38 -4.2408 61.912 -16.49 74.234 -0 0 -0 -0 0 -0 58.841 -57.448 55.909 157.65 -61.121 99.308 -0 0 -0 -10.054 -25.906 -26.158 -10.054 -25.906 -26.158 -0 0 -0 -0 0 -0 -0 0 -0 -0 0 -0 -0 0 -0 -0 0 -0 -0 0 -0 -0 0 -0 -0 0 -0 -0 0 -0 -0 0 -0 -0 0 -0 
0 0.955 0 -0 0 -0 -0 0 -0 -0 0 -0 0.98158 24.618 -14.223 -0 0 -0 -0 0 -0 -1.3569 -29.338 -4.3085 62.033 -16.513 74.351 -0 0 -0 -0 0 -0 58.745 -57.482 55.777 157.32 -61.229 98.959 -0 0 -0 -9.9047 -25.647 -26.144 -9.9047 -25.647 -26.144 -0 0 -0 -0 0 -0 -0 0 -0 -0 0 -0 -0 0 -0 -0 0 -0 -0 0 -0 -0 0 -0 -0 0 -0 -0 0 -0 -0 0 -0 -0 0 -0 
0 0.955 0 -0 0 -0 -0 0 -0 -0 0 -0 0.90204 24.602 -14.248 -0 0 -0 -0 0 -0 -1.369 -29.354 -4.264 62.188 -16.583 74.359 -0 0 -0 -0 0 -0 58.745 -57.524 55.813 157.17 -61.462 98.425 -0 0 -0 -9.7447 -25.388 -26.115 -9.7447 -25.388 -26.115 -0 0 -0 -0 0 -0 -0 0 -0 -0 0 -0 -0 0 -0 -0 0 -0 -0 0 -0 -0 0 -0 -0 0 -0 -0 0 -0 -0 0 -0 -0 0 -0 
0 0.955 0 -0 0 -0 -0 0 -0 -0 0 -0 0.82209 24.556 -14.295 -0 0 -0 -0 0 -0 -1.4015 -29.345 -4.248 62.334 -16.585 74.34 -0 0 -0 -0 0 -0 58.712 -57.541 55.809 157.18 -61.736 98.076 -0 0 -0 -9.5678 -25.122 -26.035 -9.5678 -25.122 -26.035 -0 0 -0 -0 0 -0 -0 0 -0 -0 0 -0 -0 0 -0 -0 0 -0 -0 0 -0 -0 0 -0 -0 0 -0 -0 0 -0 -0 0 -0 -0 0 -0 
0 0.955 0 -0 0 -0 -0 0 -0 -0 0 -0 0.71377 24.607 -14.325 -0 0 -0 -0 0 -0 -1.3102 -29.333 -4.2418 62.38 -16.556 74.416 -0 0 -0 -0 0 -0 58.703 -57.56 55.726 157.24 -61.755 97.907 -0 0 -0 -9.4174 -24.991 -25.971 -9.4174 -24.991 -25.971 -0 0 -0 -0 0 -0 -0 0 -0 -0 0 -0 -0 0 -0 -0 0 -0 -0 0 -0 -0 0 -0 -0 0 -0 -0 0 -0 -0 0 -0 -0 0 -0 
0 0.955 0 -0 0 -0 -0 0 -0 -0 0 -0 0.6545 24.597 -14.357 -0 0 -0 -0 0 -0 -1.2976 -29.262 -4.1955 62.453 -16.571 74.46 -0 0 -0 -0 0 -0 58.591 -57.532 55.485 157.09 -61.615 97.513 -0 0 -0 -9.4294 -24.947 -25.904 -9.4294 -24.947 -25.904 -0 0 -0 -0 0 -0 -0 0 -0 -0 0 -0 -0 0 -0 -0 0 -0 -0 0 -0 -0 0 -0 -0 0 -0 -0 0 -0 -0 0 -0 -0 0 -0 
0 0.955 0 -0 0 -0 -0 0 -0 -0 0 -0 0.61859 24.694 -14.357 -0 0 -0 -0 0 -0 -1.2716 -29.278 -4.1927 62.572 -16.606 74.56 -0 0 -0 -0 0 -0 58.609 -57.595 55.433 157.23 -61.527 97.506 -0 0 -0 -9.5431 -25.02 -25.891 -9.5431 -25.02 -25.891 -0 0 -0 -0 0 -0 -0 0 -0 -0 0 -0 -0 0 -0 -0 0 -0 -0 0 -0 -0 0 -0 -0 0 -0 -0 0 -0 -0 0 -0 -0 0 -0 
0 0.955 0 -0 0 -0 -0 0 -0 -0 0 -0 0.52899 24.719 -14.369 -0 0 -0 -0 0 -0 -1.1533 -29.271 -4.1327 62.565 -16.598 74.62 -0 0 -0 -0 0 -0 58.578 -57.572 55.337 157.41 -61.655 97.649 -0 0 -0 -9.6412 -25.035 -25.871 -9.6412 -25.035 -25.871 -0 0 -0 -0 0 -0 -0 0 -0 -0 0 -0 -0 0 -0 -0 0 -0 -0 0 -0 -0 0 -0 -0 0 -0 -0 0 -0 -0 0 -0 -0 0 -0 
0 0.955 0 -0 0 -0 -0 0 -0 -0 0 -0 0.55 24.797 -14.427 -0 0 -0 -0 0 -0 -1.113 -29.339 -4.0588 62.519 -16.577 74.621 -0 0 -0 -0 0 -0 58.718 -57.615 55.539 157.58 -61.878 97.851 -0 0 -0 -9.7486 -25.071 -25.85 -9.7486 -25.071 -25.85 -0 0 -0 -0 0 -0 -0 0 -0 -0 0 -0 -0 0 -0 -0 0 -0 -0 0 -0 -0 0 -0 -0 0 -0 -0 0 -0 -0 0 -0 -0 0 -0 
0 0.955 0 -0 0 -0 -0 0 -0 -0 0 -0 0.59396 24.861 -14.418 -0 0 -0 -0 0 -0 -1.114 -29.375 -4.1196 62.524 -16.522 74.659 -0 0 -0 -0 0 -0 58.672 -57.681 55.597 157.66 -61.98 97.922 -0 0 -0 -9.8225 -25.15 -25.867 -9.8225 -25.15 -25.867 -0 0 -0 -0 0 -0 -0 0 -0 -0 0 -0 -0 0 -0 -0 0 -0 -0 0 -0 -0 0 -0 -0 0 -0 -0 0 -0 -0 0 -0 -0 0 -0 
